<?xml version="1.0" encoding="utf-8"?>
<!-- Generator: Adobe Illustrator 16.2.0, SVG Export Plug-In . SVG Version: 6.00 Build 0)  -->
<!DOCTYPE svg PUBLIC "-//W3C//DTD SVG 1.1//EN" "http://www.w3.org/Graphics/SVG/1.1/DTD/svg11.dtd">
<svg version="1.1" xmlns="http://www.w3.org/2000/svg" xmlns:xlink="http://www.w3.org/1999/xlink" x="0px" y="0px"
	 width="303.334px" height="240px" viewBox="0 0 303.334 240" enable-background="new 0 0 303.334 240" xml:space="preserve">
<g id="BG">
</g>
<g id="iKopimi">
	<g id="Pixels_3_">
	</g>
	<g>
		<path d="M72.164,128.479c-4.675,0-8.479-3.804-8.479-8.479s3.804-8.479,8.479-8.479c4.676,0,8.479,3.804,8.479,8.479
			S76.84,128.479,72.164,128.479z M72.164,117.521c-1.366,0-2.479,1.112-2.479,2.479s1.112,2.479,2.479,2.479
			c1.367,0,2.479-1.112,2.479-2.479S73.531,117.521,72.164,117.521z"/>
	</g>
	<g>
		<path d="M108.473,156.274c-4.675,0-8.479-3.804-8.479-8.479s3.804-8.479,8.479-8.479c4.676,0,8.479,3.804,8.479,8.479
			S113.148,156.274,108.473,156.274z M108.473,145.315c-1.366,0-2.479,1.112-2.479,2.479s1.112,2.479,2.479,2.479
			c1.367,0,2.479-1.112,2.479-2.479S109.84,145.315,108.473,145.315z"/>
	</g>
	<g>
		<path d="M108.474,96.274c-4.675,0-8.479-3.804-8.479-8.479s3.804-8.479,8.479-8.479c4.676,0,8.479,3.804,8.479,8.479
			S113.149,96.274,108.474,96.274z M108.474,85.315c-1.366,0-2.479,1.112-2.479,2.479s1.112,2.479,2.479,2.479
			c1.367,0,2.479-1.112,2.479-2.479S109.841,85.315,108.474,85.315z"/>
	</g>
	<path d="M104.839,148.36c-7.847,7.879-18.699,12.764-30.672,12.764c-23.882,0-43.312-19.43-43.312-43.312
		c0-23.883,19.43-43.313,43.312-43.313c12.023,0,22.914,4.928,30.77,12.866l3.537-3.531C99.713,74.99,87.57,69.5,74.167,69.5
		c-26.639,0-48.312,21.673-48.312,48.313c0,26.639,21.673,48.312,48.312,48.312c13.348,0,25.448-5.442,34.2-14.224L104.839,148.36z"
		/>
	
		<line stroke="#000000" stroke-width="5" stroke-linecap="round" stroke-miterlimit="10" x1="27.834" y1="163" x2="27.834" y2="20"/>
	<g>
		<path d="M239.724,169.208c-4.675,0-8.479-3.804-8.479-8.479s3.804-8.479,8.479-8.479c4.676,0,8.479,3.804,8.479,8.479
			S244.399,169.208,239.724,169.208z M239.724,158.249c-1.366,0-2.479,1.112-2.479,2.479s1.112,2.479,2.479,2.479
			c1.367,0,2.479-1.112,2.479-2.479S241.091,158.249,239.724,158.249z"/>
	</g>
	<g>
		<path d="M239.724,80.618c-4.675,0-8.479-3.804-8.479-8.479s3.804-8.479,8.479-8.479c4.676,0,8.479,3.804,8.479,8.479
			S244.399,80.618,239.724,80.618z M239.724,69.659c-1.366,0-2.479,1.112-2.479,2.479s1.112,2.479,2.479,2.479
			c1.367,0,2.479-1.112,2.479-2.479S241.091,69.659,239.724,69.659z"/>
	</g>
	<g>
		<path d="M185.834,168.5c-1.381,0-2.5-1.119-2.5-2.5V24c0-1.381,1.119-2.5,2.5-2.5s2.5,1.119,2.5,2.5v142
			C188.334,167.381,187.215,168.5,185.834,168.5z"/>
	</g>
	<g>
		<path d="M236.468,159.601c-0.674,0-1.346-0.271-1.838-0.805l-49.869-54.033c-0.937-1.015-0.873-2.596,0.142-3.532
			c1.016-0.937,2.598-0.872,3.532,0.142l49.869,54.033c0.937,1.015,0.873,2.596-0.142,3.532
			C237.682,159.381,237.073,159.601,236.468,159.601z"/>
	</g>
	<g>
		<path d="M193.754,111.703c-0.699,0-1.396-0.292-1.89-0.862c-0.904-1.043-0.792-2.622,0.251-3.526l40.679-35.271
			c1.041-0.904,2.621-0.794,3.526,0.251c0.904,1.043,0.792,2.622-0.251,3.526l-40.679,35.271
			C194.918,111.502,194.335,111.703,193.754,111.703z"/>
	</g>
</g>
<g id="_x33_D" display="none">
</g>
</svg>
