<?xml version="1.0" encoding="utf-8"?>
<!-- Generator: Adobe Illustrator 16.2.0, SVG Export Plug-In . SVG Version: 6.00 Build 0)  -->
<!DOCTYPE svg PUBLIC "-//W3C//DTD SVG 1.1//EN" "http://www.w3.org/Graphics/SVG/1.1/DTD/svg11.dtd">
<svg version="1.1" xmlns="http://www.w3.org/2000/svg" xmlns:xlink="http://www.w3.org/1999/xlink" x="0px" y="0px"
	 width="379.334px" height="240px" viewBox="0 0 379.334 240" enable-background="new 0 0 379.334 240" xml:space="preserve">
<g id="BG">
</g>
<g id="iKopimi">
	<g id="Pixels_3_">
	</g>
	<g>
		<path d="M63.219,65.041v77.388h0.35l52.664-40.866l4.711,3.499L76.269,145.56l44.85,43.982l-4.778,3.501l-52.771-44.349h-0.35
			v40.848l-8.501,3.501v-131.5L63.219,65.041z"/>
	</g>
	<g>
		<path fill="#FFFFFF" d="M54.218,62.043v80.387h0.35l43.85-40.367h16.525l-47.675,43.498l47.85,46.982H98.761l-44.193-43.848h-0.35
			v43.848H40.995v-130.5H54.218z"/>
		<g>
			<path d="M98.452,193.293l-43.484-43.144v43.144H40.245v-132h14.723v79.748l43.156-39.729h18.753l-48.519,44.269l48.593,47.712
				H98.452z M113.283,191.793L66.176,145.54l46.832-42.728H98.71L54.86,143.18h-1.393V62.793H41.745v129h11.723v-43.848h1.408
				l44.193,43.848H113.283z"/>
			<path fill="#FFFFFF" d="M54.718,61.543v80.068l43.504-40.049h18.011l-48.237,44.012l48.345,47.469H98.555l-43.837-43.494v43.494
				H40.495v-131.5H54.718 M41.495,192.043h12.223v-43.848h1.056l44.193,43.848h14.928L66.54,145.547l0.391-0.355l46.722-42.629
				h-15.04l-43.85,40.367h-1.045V62.543H41.495V192.043 M55.218,61.043h-0.5H40.495h-0.5v0.5v131.5v0.5h0.5h14.223h0.5v-0.5v-42.294
				l42.984,42.648l0.146,0.146h0.206h17.785h1.223l-0.872-0.856l-47.968-47.099l47.847-43.656l0.953-0.869h-1.29H98.222h-0.195
				l-0.144,0.132l-42.665,39.277V61.543V61.043L55.218,61.043z M41.995,63.043h11.223v79.887v0.5h0.5h1.045h0.195l0.144-0.132
				l43.706-40.235h13.555l-45.769,41.76l-0.391,0.354l-0.391,0.356l0.377,0.37l46.482,45.64H99.173l-44.047-43.702l-0.146-0.146
				h-0.206h-1.056h-0.5v0.5v43.348H41.995V63.043L41.995,63.043z"/>
		</g>
	</g>
	<g>
		<polygon points="228.983,21.586 140.803,207 324.105,206.617 		"/>
		<path d="M222.908,95.651v59.292h0.268l40.844-31.502l3.116,2.872l-34.229,31.028l34.362,33.698l-3.192,2.875l-40.901-34.171
			h-0.268v31.296l-6.321,2.875V92.779L222.908,95.651z"/>
		<path fill="#FFFFFF" d="M216.778,194.106l-0.383-101.625l6.704,3.046l0.012,59.225l41.403-31.502l2.904,3.065l-0.154,0.141
			l-34.079,30.893l34.363,33.698l-3.004,3.06l-0.591-0.045L223.1,159.936v31.229L216.778,194.106z M222.717,159.553h0.529
			l0.053,0.045l40.971,34.162l2.72-2.726l-34.361-33.698l0.15-0.136l34.073-30.888l-2.64-2.787l-40.971,31.609h-0.524V95.775
			l-5.938-2.699v100.575l5.938-2.734V159.553z"/>
		<g>
			<path fill="#FFFFFF" d="M216.012,93.354v61.591h0.269l33.596-30.929h12.662l-36.527,33.327l36.661,35.998H250.14l-33.859-33.596
				h-0.269v33.596h-10.131V93.354H216.012z"/>
			<g>
				<path d="M249.903,193.915l-33.316-33.056v33.056h-11.28V92.779h11.28v61.101l33.065-30.438h14.367l-37.173,33.917l37.23,36.557
					H249.903z M261.267,192.766l-36.093-35.438l35.882-32.736h-10.955l-33.597,30.928h-1.066V93.928h-8.981v98.838h8.981V159.17
					h1.079l33.859,33.596H261.267z"/>
				<path fill="#FFFFFF" d="M216.396,92.971v61.347l33.331-30.685h13.8l-36.958,33.721l37.04,36.37h-13.627l-33.586-33.325v33.325
					h-10.897V92.971H216.396 M206.265,192.957h9.364v-33.596h0.809l33.86,33.596h11.437l-36.281-35.624l0.299-0.272l35.797-32.661
					h-11.522l-33.597,30.928h-0.801V93.736h-9.364V192.957 M216.778,92.588h-0.383h-10.897h-0.383v0.383v100.753v0.383h0.383h10.897
					h0.383v-0.383v-32.405l32.934,32.676l0.112,0.112h0.157h13.627h0.937l-0.668-0.656l-36.752-36.086l36.659-33.448l0.73-0.666
					h-0.988h-13.8h-0.149l-0.11,0.101l-32.688,30.094V92.971V92.588L216.778,92.588z M206.647,94.119h8.599v61.208v0.383h0.383
					h0.801h0.149l0.11-0.101l33.486-30.827h10.385l-35.066,31.995l-0.299,0.271l-0.3,0.273l0.289,0.283l35.613,34.969h-10.343
					l-33.747-33.484l-0.112-0.111h-0.158h-0.809h-0.383v0.383v33.213h-8.599V94.119L206.647,94.119z"/>
			</g>
		</g>
		<g>
			<rect x="276" y="183" width="12" height="11"/>
			<path fill="#FFFFFF" d="M287,183v11h-11v-11H287 M288,182h-0.991H276.05H275v0.999v10.96V195h1.05h10.959H288v-1.041v-10.96V182
				L288,182z"/>
		</g>
	</g>
</g>
<g id="_x33_D" display="none">
</g>
</svg>
