<?xml version="1.0" encoding="utf-8"?>
<!-- Generator: Adobe Illustrator 16.2.0, SVG Export Plug-In . SVG Version: 6.00 Build 0)  -->
<!DOCTYPE svg PUBLIC "-//W3C//DTD SVG 1.1//EN" "http://www.w3.org/Graphics/SVG/1.1/DTD/svg11.dtd">
<svg version="1.1" xmlns="http://www.w3.org/2000/svg" xmlns:xlink="http://www.w3.org/1999/xlink" x="0px" y="0px"
	 width="300.666px" height="258.334px" viewBox="0 0 300.666 258.334" enable-background="new 0 0 300.666 258.334"
	 xml:space="preserve">
<g id="BG">
</g>
<g id="iKopimi">
	<g id="Pixels_3_">
	</g>
	<g>
		<path d="M80.147,54.896l-15.103,51.632L27.86,67.503L80.147,54.896z M69.407,111.201l53.273-12.771l-15.939,51.844L69.407,111.201
			z M163.736,142.59l-15.112,51.629l-37.185-39.018L163.736,142.59z M83.782,55.947l37.185,39.019l-52.074,12.531L83.782,55.947z
			 M110.307,151.576l15.176-51.878l37.372,39.216L110.307,151.576z M204.548,182.665l-52.293,12.605l15.112-51.622L204.548,182.665z
			 M128.443,96.88c6.321-1.512,45.938-11.096,52.646-12.73l-15.277,51.943L128.443,96.88z M152.354,87.248l-24.792,5.953
			l15.107-51.629l17.65,18.532L152.354,87.248z M221.74,124.54l-52.293,12.608l15.107-51.626L221.74,124.54z"/>
		<polygon points="151.935,10.681 176.809,4.666 161.54,56.246 143.919,37.815 		"/>
		<path d="M186.865,82.598c6.323-1.507,46.7-11.224,53.414-12.86l-15.474,52.854L186.865,82.598z"/>
		<polygon points="280.657,110.228 228.263,122.842 243.365,71.219 		"/>
	</g>
</g>
<g id="_x33_D" display="none">
</g>
</svg>
