<?xml version="1.0" encoding="utf-8"?>
<!-- Generator: Adobe Illustrator 16.2.0, SVG Export Plug-In . SVG Version: 6.00 Build 0)  -->
<!DOCTYPE svg PUBLIC "-//W3C//DTD SVG 1.1//EN" "http://www.w3.org/Graphics/SVG/1.1/DTD/svg11.dtd">
<svg version="1.1" xmlns="http://www.w3.org/2000/svg" xmlns:xlink="http://www.w3.org/1999/xlink" x="0px" y="0px" width="240px"
	 height="240px" viewBox="0 0 240 240" enable-background="new 0 0 240 240" xml:space="preserve">
<g id="BG">
</g>
<g id="iKopimi">
	<g>
		<polygon points="110.235,25.932 132.876,41.717 112.374,55.904 132.888,70.207 112.393,84.39 130.786,97.214 151.281,83.031 
			171.795,97.333 192.297,83.146 214.931,98.926 192.311,114.579 171.797,100.277 151.302,114.46 130.788,100.158 112.411,112.875 
			153.438,141.479 130.818,157.133 26.124,84.139 48.743,68.486 89.771,97.09 108.147,84.373 87.634,70.07 108.13,55.888 
			87.616,41.586 		"/>
	</g>
	<polygon points="192.311,114.579 171.797,100.277 151.302,114.46 133.001,101.688 132.876,41.717 112.374,55.904 110.829,137.078 
		108.13,55.888 87.616,41.586 87.53,126.531 26.124,84.139 26.063,146.063 130.434,219 153.188,203.25 153.231,174.726 
		171.412,162.145 191.926,176.446 214.876,160.688 214.931,98.926 	"/>
	<g id="Pixels_3_">
		<g>
			<polygon fill="#FFFFFF" points="192.292,86.094 210.686,98.918 192.309,111.635 173.915,98.811 			"/>
		</g>
		<g>
			<polygon fill="#FFFFFF" points="110.293,114.341 128.687,127.165 110.31,139.882 91.916,127.058 			"/>
		</g>
		<g>
			<polygon fill="#FFFFFF" points="110.231,28.881 128.625,41.705 110.248,54.422 91.854,41.598 			"/>
		</g>
		<g>
			<polygon fill="#FFFFFF" points="110.257,57.37 128.644,70.189 110.267,82.907 91.88,70.088 			"/>
		</g>
		<g>
			<polygon fill="#FFFFFF" points="48.745,71.43 67.14,84.254 48.763,96.971 30.368,84.146 			"/>
		</g>
		<g>
			<polygon fill="#FFFFFF" points="151.283,85.975 169.677,98.799 151.3,111.516 132.906,98.691 			"/>
		</g>
		<g>
			<polygon fill="#FFFFFF" points="110.274,85.855 128.668,98.68 110.291,111.396 91.897,98.572 			"/>
		</g>
		<g>
			<polygon fill="#FFFFFF" points="69.266,85.736 87.653,98.557 69.276,111.273 50.889,98.453 			"/>
		</g>
		<g>
			<polygon fill="#FFFFFF" points="89.779,100.039 108.173,112.863 89.796,125.58 71.402,112.756 			"/>
		</g>
		<g>
			<polygon fill="#FFFFFF" points="130.807,128.644 149.2,141.467 130.823,154.185 112.43,141.36 			"/>
		</g>
	</g>
</g>
<g id="_x33_D" display="none">
</g>
</svg>
